<svg width="45" height="45" viewBox="0 0 45 45" fill="none" xmlns="http://www.w3.org/2000/svg">
<path d="M13.9684 15.8306C15.4967 19.0137 17.58 21.997 20.2184 24.6354C22.8568 27.2738 25.8401 29.3571 29.0232 30.8854C29.297 31.0169 29.4339 31.0826 29.6071 31.1331C30.2227 31.3125 30.9786 31.1836 31.5 30.8103C31.6467 30.7053 31.7722 30.5798 32.0232 30.3288C32.7909 29.5611 33.1747 29.1773 33.5607 28.9263C35.0163 27.98 36.8927 27.98 38.3483 28.9263C38.7343 29.1773 39.1181 29.5611 39.8858 30.3288L40.3137 30.7567C41.4806 31.9236 42.0641 32.5071 42.381 33.1337C43.0114 34.38 43.0114 35.8517 42.381 37.098C42.0641 37.7246 41.4806 38.3081 40.3137 39.475L39.9675 39.8212C38.8046 40.9841 38.2231 41.5656 37.4326 42.0097C36.5553 42.5024 35.1929 42.8568 34.1867 42.8538C33.2799 42.8511 32.6602 42.6752 31.4208 42.3234C24.7601 40.4329 18.475 36.8659 13.2314 31.6224C7.98792 26.3788 4.4209 20.0937 2.53039 13.433C2.17861 12.1935 2.00272 11.5738 2.00002 10.6671C1.99702 9.66093 2.35134 8.29846 2.84412 7.42123C3.28822 6.63067 3.86969 6.0492 5.03264 4.88625L5.37877 4.54012C6.54571 3.37318 7.12918 2.78971 7.75581 2.47276C9.00207 1.84241 10.4738 1.84241 11.7201 2.47276C12.3467 2.78971 12.9302 3.37318 14.0971 4.54012L14.525 4.96801C15.2927 5.73568 15.6765 6.11951 15.9275 6.50548C16.8738 7.96105 16.8738 9.83754 15.9275 11.2931C15.6765 11.6791 15.2927 12.0629 14.525 12.8306C14.274 13.0816 14.1485 13.2071 14.0435 13.3538C13.6702 13.8751 13.5413 14.6311 13.7207 15.2467C13.7712 15.4199 13.8369 15.5568 13.9684 15.8306Z" stroke="#3E4234" stroke-width="3" stroke-linecap="round" stroke-linejoin="round"/>
</svg>
