<svg width="44" height="36" viewBox="0 0 44 36" fill="none" xmlns="http://www.w3.org/2000/svg">
<path d="M1.854 8L18.1838 19.4309C19.5062 20.3565 20.1674 20.8193 20.8865 20.9986C21.5218 21.157 22.1862 21.157 22.8215 20.9986C23.5407 20.8193 24.2018 20.3565 25.5242 19.4309L41.854 8M11.454 34H32.254C35.6143 34 37.2945 34 38.5779 33.346C39.7069 32.7708 40.6248 31.8529 41.2 30.7239C41.854 29.4405 41.854 27.7603 41.854 24.4V11.6C41.854 8.23969 41.854 6.55953 41.2 5.27606C40.6248 4.14708 39.7069 3.2292 38.5779 2.65396C37.2945 2 35.6143 2 32.254 2H11.454C8.09369 2 6.41353 2 5.13006 2.65396C4.00109 3.2292 3.0832 4.14708 2.50796 5.27606C1.854 6.55953 1.854 8.23969 1.854 11.6V24.4C1.854 27.7603 1.854 29.4405 2.50796 30.7239C3.0832 31.8529 4.00109 32.7708 5.13006 33.346C6.41353 34 8.09369 34 11.454 34Z" stroke="#3E4234" stroke-width="3" stroke-linecap="round" stroke-linejoin="round"/>
</svg>
