<svg width="32" height="32" viewBox="0 0 32 32" fill="none" xmlns="http://www.w3.org/2000/svg">
<path d="M22.6252 9.3656C22.6314 9.3656 22.6397 9.3656 22.648 9.3656C22.8651 9.3656 23.0667 9.43313 23.2319 9.54949L23.2287 9.54741C23.3493 9.65234 23.4303 9.79986 23.45 9.96608V9.9692C23.4708 10.0959 23.4822 10.2414 23.4822 10.3899C23.4822 10.4575 23.4802 10.524 23.475 10.5905V10.5811C23.2412 13.0422 22.2273 19.0107 21.712 21.7658C21.4938 22.9325 21.0647 23.3231 20.6492 23.3605C19.7464 23.4446 19.0607 22.7642 18.186 22.1907C16.8167 21.2921 16.0427 20.7331 14.714 19.8574C13.1775 18.8465 14.1738 18.2886 15.0485 17.3806C15.2781 17.1417 19.2581 13.5212 19.336 13.1929C19.3402 13.1731 19.3423 13.1513 19.3423 13.1285C19.3423 13.0474 19.3121 12.9737 19.2633 12.9176C19.2093 12.8822 19.1418 12.8625 19.0711 12.8625C19.0244 12.8625 18.9797 12.8719 18.9381 12.8874L18.9402 12.8864C18.8031 12.9176 16.6159 14.363 12.3786 17.2227C11.9163 17.5874 11.3324 17.818 10.6966 17.845H10.6904C9.78966 17.7359 8.97205 17.5354 8.196 17.2497L8.27288 17.2747C7.2984 16.9568 6.52442 16.7895 6.59091 16.2514C6.62624 15.9716 7.01201 15.6852 7.74824 15.3922C12.2833 13.4162 15.3076 12.1138 16.8209 11.4849C18.4904 10.5988 20.4258 9.86946 22.461 9.39677L22.6241 9.36456L22.6252 9.3656ZM16.1923 0C7.56747 0.0207778 0.583008 7.01771 0.583008 15.6457C0.583008 24.2862 7.58721 31.2914 16.2287 31.2914C24.8702 31.2914 31.8744 24.2872 31.8744 15.6457C31.8744 7.01771 24.8899 0.0207778 16.2671 0H16.2651C16.2408 0 16.2166 0 16.1923 0Z" fill="#BEA272"/>
</svg>
