<svg width="32" height="32" viewBox="0 0 32 32" fill="none" xmlns="http://www.w3.org/2000/svg">
<path fill-rule="evenodd" clip-rule="evenodd" d="M25.0446 22.0934C24.6675 23.1608 23.1686 24.0438 21.9733 24.302C21.155 24.4757 20.088 24.6132 16.4926 23.1232C12.4545 21.4502 6.84705 15.4908 6.84705 11.5249C6.84705 9.50604 8.01109 7.15516 10.0466 7.15516C11.026 7.15516 11.2419 7.17426 11.5642 7.94737C11.9413 8.85823 12.8613 11.1024 12.9708 11.3324C13.4229 12.2762 12.5108 12.8286 11.849 13.6503C11.6378 13.8975 11.3984 14.1649 11.6659 14.6251C11.9319 15.0758 12.8519 16.5751 14.2037 17.7786C15.9497 19.3343 17.3657 19.8309 17.8726 20.0422C18.2496 20.1987 18.7002 20.1623 18.9756 19.868C19.3245 19.4909 19.7579 18.8651 20.1991 18.2485C20.5104 17.8071 20.9063 17.752 21.3209 17.9085C21.601 18.0056 25.1603 19.6586 25.3105 19.9231C25.4216 20.1156 25.4216 21.0261 25.0446 22.0934ZM15.9403 0H15.9325C7.30702 0 0.291504 7.01764 0.291504 15.6457C0.291504 19.0669 1.39454 22.2409 3.27046 24.8154L1.321 30.629L7.33364 28.7077C9.80723 30.3448 12.7596 31.2914 15.9403 31.2914C24.5658 31.2914 31.5829 24.2737 31.5829 15.6457C31.5829 7.01764 24.5658 0 15.9403 0Z" fill="#BEA272"/>
</svg>
