<svg width="31" height="31" viewBox="0 0 31 31" fill="none" xmlns="http://www.w3.org/2000/svg">
<path d="M9.37787 10.6814C10.4477 12.9096 11.906 14.9979 13.7529 16.8448C15.5998 18.6917 17.6881 20.15 19.9162 21.2198C20.1079 21.3118 20.2037 21.3578 20.325 21.3932C20.7559 21.5188 21.2851 21.4285 21.65 21.1672C21.7527 21.0937 21.8405 21.0058 22.0162 20.8301C22.5536 20.2928 22.8223 20.0241 23.0925 19.8484C24.1114 19.186 25.4249 19.186 26.4438 19.8484C26.714 20.0241 26.9827 20.2928 27.52 20.8301L27.8196 21.1297C28.6364 21.9465 29.0449 22.3549 29.2667 22.7936C29.708 23.666 29.708 24.6962 29.2667 25.5686C29.0449 26.0072 28.6364 26.4157 27.8196 27.2325L27.5773 27.4748C26.7632 28.2889 26.3562 28.6959 25.8028 29.0068C25.1887 29.3517 24.235 29.5997 23.5307 29.5976C22.896 29.5958 22.4622 29.4726 21.5946 29.2264C16.9321 27.903 12.5325 25.4061 8.86201 21.7356C5.19154 18.0652 2.69463 13.6656 1.37127 9.00307C1.12503 8.13548 1.0019 7.70169 1.00001 7.06697C0.997917 6.36265 1.24594 5.40892 1.59089 4.79486C1.90175 4.24147 2.30878 3.83444 3.12284 3.02038L3.36514 2.77808C4.182 1.96123 4.59042 1.5528 5.02907 1.33093C5.90145 0.889689 6.93168 0.889689 7.80406 1.33093C8.2427 1.5528 8.65113 1.96123 9.46799 2.77808L9.76751 3.07761C10.3049 3.61498 10.5736 3.88366 10.7492 4.15384C11.4117 5.17274 11.4117 6.48628 10.7492 7.50518C10.5736 7.77536 10.3049 8.04404 9.76751 8.58141C9.59181 8.75711 9.50396 8.84496 9.43042 8.94766C9.16911 9.3126 9.07888 9.84174 9.20449 10.2727C9.23984 10.3939 9.28585 10.4898 9.37787 10.6814Z" stroke="#3E4234" stroke-width="1.4" stroke-linecap="round" stroke-linejoin="round"/>
</svg>
