<svg width="32" height="32" viewBox="0 0 32 32" fill="none" xmlns="http://www.w3.org/2000/svg">
<path d="M25.2618 22.3258H22.9883C22.1276 22.3258 21.8615 21.6414 20.3153 20.0742C18.9683 18.77 18.3725 18.5948 18.0418 18.5948C17.5775 18.5948 17.445 18.7273 17.445 19.3679V21.4212C17.445 21.9742 17.2686 22.3049 15.8111 22.3049C12.8709 22.1077 10.3439 20.5041 8.8769 18.167L8.85499 18.1305C7.15223 16.0156 5.89707 13.4666 5.27627 10.6788L5.25331 10.5567C5.25331 10.226 5.38582 9.91609 6.02644 9.91609H8.29992C8.87377 9.91609 9.09496 10.1811 9.3172 10.7988C10.4419 14.0457 12.32 16.8941 13.0931 16.8941C13.38 16.8941 13.5125 16.7616 13.5125 16.0333V12.6747C13.4239 11.1285 12.6069 10.997 12.6069 10.4451C12.6163 10.1498 12.8584 9.914 13.1547 9.914C13.1641 9.914 13.1724 9.914 13.1818 9.91504H13.1808H16.7584C17.2446 9.91504 17.421 10.1801 17.421 10.7539V15.2821C17.421 15.7672 17.6422 15.9446 17.7747 15.9446C18.0616 15.9446 18.3057 15.7672 18.8347 15.2383C19.9344 13.8955 20.8745 12.3596 21.5913 10.7038L21.6393 10.5786C21.7906 10.1999 22.1537 9.93696 22.5783 9.93696C22.5981 9.93696 22.6169 9.938 22.6367 9.93904H22.6336H24.9071C25.5915 9.93904 25.747 10.2907 25.5915 10.7779C24.6796 12.7864 23.655 14.5121 22.4677 16.1105L22.522 16.0333C22.2799 16.4308 22.1912 16.6072 22.522 17.0506C22.764 17.3813 23.5601 18.0658 24.0901 18.6845C24.857 19.443 25.4997 20.3257 25.9849 21.3002L26.011 21.3576C26.2321 21.9961 25.9004 22.3279 25.2597 22.3279L25.2618 22.3258ZM20.4488 0H10.8426C2.07524 0 0 2.07524 0 10.8426V20.4488C0 29.2162 2.07524 31.2914 10.8426 31.2914H20.4488C29.2162 31.2914 31.2914 29.2162 31.2914 20.4488V10.8426C31.2914 2.07524 29.1932 0 20.4488 0Z" fill="#BEA272"/>
</svg>
