<svg width="30" height="25" viewBox="0 0 30 25" fill="none" xmlns="http://www.w3.org/2000/svg">
<path d="M1 5.346L12.4309 13.3476C13.3565 13.9956 13.8193 14.3195 14.3228 14.445C14.7675 14.5559 15.2325 14.5559 15.6772 14.445C16.1807 14.3195 16.6435 13.9956 17.5691 13.3476L29 5.346M7.72 23.546H22.28C24.6322 23.546 25.8083 23.546 26.7068 23.0882C27.497 22.6856 28.1396 22.043 28.5422 21.2528C29 20.3543 29 19.1782 29 16.826V7.866C29 5.51378 29 4.33767 28.5422 3.43924C28.1396 2.64896 27.497 2.00644 26.7068 1.60377C25.8083 1.146 24.6322 1.146 22.28 1.146H7.72C5.36778 1.146 4.19167 1.146 3.29324 1.60377C2.50296 2.00644 1.86044 2.64896 1.45777 3.43924C1 4.33767 1 5.51378 1 7.866V16.826C1 19.1782 1 20.3543 1.45777 21.2528C1.86044 22.043 2.50296 22.6856 3.29324 23.0882C4.19167 23.546 5.36778 23.546 7.72 23.546Z" stroke="#3E4234" stroke-width="1.4" stroke-linecap="round" stroke-linejoin="round"/>
</svg>
