<svg width="24" height="22" viewBox="0 0 24 22" fill="none" xmlns="http://www.w3.org/2000/svg">
<path d="M22 20V18C22 16.1362 20.7252 14.5701 19 14.126M15.5 2.29076C16.9659 2.88415 18 4.32131 18 6C18 7.67869 16.9659 9.11585 15.5 9.70924M17 20C17 18.1362 17 17.2044 16.6955 16.4693C16.2895 15.4892 15.5108 14.7105 14.5307 14.3045C13.7956 14 12.8638 14 11 14H8C6.13623 14 5.20435 14 4.46927 14.3045C3.48915 14.7105 2.71046 15.4892 2.30448 16.4693C2 17.2044 2 18.1362 2 20M13.5 6C13.5 8.20914 11.7091 10 9.5 10C7.29086 10 5.5 8.20914 5.5 6C5.5 3.79086 7.29086 2 9.5 2C11.7091 2 13.5 3.79086 13.5 6Z" stroke="#354868" stroke-width="2.7" stroke-linecap="round" stroke-linejoin="round"/>
</svg>
