<svg width="38" height="38" viewBox="0 0 38 38" fill="none" xmlns="http://www.w3.org/2000/svg">
<path d="M26.8947 11.2453C26.9022 11.2453 26.9122 11.2453 26.9222 11.2453C27.1829 11.2453 27.4249 11.3264 27.6232 11.4661L27.6195 11.4636C27.7642 11.5896 27.8615 11.7667 27.8852 11.9663V11.97C27.9101 12.1222 27.9238 12.2968 27.9238 12.4752C27.9238 12.5563 27.9213 12.6361 27.9151 12.716V12.7047C27.6344 15.6598 26.417 22.8261 25.7983 26.1342C25.5363 27.535 25.0211 28.004 24.5222 28.049C23.4382 28.15 22.6149 27.3329 21.5646 26.6444C19.9205 25.5654 18.9912 24.8943 17.3958 23.8427C15.5509 22.629 16.7472 21.9592 17.7975 20.8689C18.0731 20.582 22.8519 16.2349 22.9455 15.8407C22.9505 15.817 22.9529 15.7908 22.9529 15.7633C22.9529 15.6661 22.9168 15.5775 22.8581 15.5101C22.7933 15.4677 22.7122 15.444 22.6274 15.444C22.5712 15.444 22.5176 15.4552 22.4677 15.474L22.4702 15.4727C22.3055 15.5101 19.6794 17.2457 14.5916 20.6793C14.0366 21.1172 13.3355 21.3941 12.5721 21.4265H12.5646C11.4831 21.2956 10.5014 21.0548 9.56963 20.7118L9.66194 20.7417C8.49188 20.36 7.56257 20.1592 7.6424 19.513C7.68482 19.1771 8.14802 18.8332 9.032 18.4814C14.4773 16.1089 18.1085 14.5451 19.9255 13.79C21.9301 12.7259 24.254 11.8503 26.6976 11.2827L26.8935 11.244L26.8947 11.2453ZM19.1708 0C8.81496 0.0249479 0.428711 8.42616 0.428711 18.7858C0.428711 29.1604 8.83866 37.5716 19.2145 37.5716C29.5903 37.5716 38.0003 29.1616 38.0003 18.7858C38.0003 8.42616 29.614 0.0249479 19.2607 0H19.2582C19.2291 0 19.1999 0 19.1708 0Z" fill="#354868"/>
</svg>
