<svg width="38" height="38" viewBox="0 0 38 38" fill="none" xmlns="http://www.w3.org/2000/svg">
<path d="M30.202 26.6918H27.4839C26.4548 26.6918 26.1367 25.8735 24.2881 23.9999C22.6777 22.4407 21.9654 22.2311 21.57 22.2311C21.0149 22.2311 20.8565 22.3895 20.8565 23.1554V25.6103C20.8565 26.2714 20.6457 26.6668 18.903 26.6668C15.3879 26.4311 12.3667 24.5138 10.6128 21.7197L10.5867 21.676C8.5509 19.1475 7.05028 16.1001 6.30808 12.7671L6.28064 12.6212C6.28064 12.2257 6.43906 11.8553 7.20496 11.8553H9.92304C10.6091 11.8553 10.8736 12.1721 11.1393 12.9106C12.4839 16.7925 14.7293 20.1978 15.6536 20.1978C15.9966 20.1978 16.155 20.0394 16.155 19.1687V15.1534C16.049 13.3047 15.0723 13.1476 15.0723 12.4877C15.0835 12.1347 15.3729 11.8528 15.7272 11.8528C15.7384 11.8528 15.7484 11.8528 15.7596 11.854H15.7584H20.0357C20.617 11.854 20.8278 12.1708 20.8278 12.8569V18.2706C20.8278 18.8507 21.0922 19.0627 21.2506 19.0627C21.5937 19.0627 21.8856 18.8507 22.518 18.2182C23.8328 16.6128 24.9567 14.7767 25.8136 12.797L25.871 12.6474C26.0519 12.1945 26.486 11.8802 26.9937 11.8802C27.0174 11.8802 27.0398 11.8815 27.0635 11.8827H27.0598H29.7779C30.5961 11.8827 30.782 12.3031 30.5961 12.8856C29.5059 15.2868 28.281 17.35 26.8614 19.261L26.9263 19.1687C26.6369 19.644 26.5309 19.8548 26.9263 20.385C27.2157 20.7804 28.1675 21.5987 28.8011 22.3384C29.718 23.2452 30.4864 24.3005 31.0664 25.4656L31.0976 25.5342C31.362 26.2976 30.9654 26.6943 30.1995 26.6943L30.202 26.6918ZM24.4477 0H12.9629C2.48107 0 0 2.48107 0 12.9629V24.4477C0 34.9296 2.48107 37.4107 12.9629 37.4107H24.4477C34.9296 37.4107 37.4107 34.9296 37.4107 24.4477V12.9629C37.4107 2.48107 34.9022 0 24.4477 0Z" fill="#354868"/>
</svg>
