<svg width="45" height="45" viewBox="0 0 45 45" fill="none" xmlns="http://www.w3.org/2000/svg">
<path d="M36.3289 32.1066H33.0594C31.8215 32.1066 31.4389 31.1223 29.2153 28.8687C27.2782 26.9931 26.4214 26.741 25.9458 26.741C25.2781 26.741 25.0875 26.9316 25.0875 27.8529V30.8057C25.0875 31.601 24.834 32.0766 22.7378 32.0766C18.5096 31.793 14.8755 29.4868 12.7658 26.1258L12.7343 26.0733C10.2856 23.0319 8.48054 19.3663 7.58778 15.3571L7.55477 15.1816C7.55477 14.7059 7.74532 14.2603 8.6666 14.2603H11.9361C12.7613 14.2603 13.0794 14.6414 13.399 15.5297C15.0165 20.1991 17.7173 24.2953 18.8291 24.2953C19.2418 24.2953 19.4323 24.1047 19.4323 23.0574V18.2275C19.3048 16.0038 18.1299 15.8147 18.1299 15.021C18.1434 14.5964 18.4915 14.2573 18.9177 14.2573C18.9312 14.2573 18.9432 14.2573 18.9567 14.2588H18.9552H24.1002C24.7994 14.2588 25.053 14.6399 25.053 15.4651V21.9771C25.053 22.6748 25.3711 22.9299 25.5617 22.9299C25.9743 22.9299 26.3254 22.6748 27.0861 21.9141C28.6676 19.983 30.0195 17.7743 31.0503 15.3931L31.1193 15.2131C31.3369 14.6684 31.8591 14.2903 32.4697 14.2903C32.4983 14.2903 32.5253 14.2918 32.5538 14.2933H32.5493H35.8187C36.803 14.2933 37.0266 14.7989 36.803 15.4997C35.4916 18.388 34.0182 20.8698 32.3107 23.1685L32.3887 23.0574C32.0406 23.6291 31.9131 23.8827 32.3887 24.5204C32.7368 24.996 33.8817 25.9803 34.6439 26.8701C35.7467 27.9609 36.671 29.2303 37.3687 30.6317L37.4062 30.7142C37.7243 31.6325 37.2472 32.1096 36.3259 32.1096L36.3289 32.1066ZM29.4073 0H15.5927C2.9844 0 0 2.9844 0 15.5927V29.4073C0 42.0156 2.9844 45 15.5927 45H29.4073C42.0156 45 45 42.0156 45 29.4073V15.5927C45 2.9844 41.9826 0 29.4073 0Z" fill="#6D823D"/>
</svg>
