<svg width="45" height="45" viewBox="0 0 45 45" fill="none" xmlns="http://www.w3.org/2000/svg">
<path fill-rule="evenodd" clip-rule="evenodd" d="M35.5973 31.7725C35.055 33.3074 32.8995 34.5772 31.1805 34.9486C30.0038 35.1984 28.4692 35.3961 23.2987 33.2534C17.4915 30.8474 9.42751 22.2772 9.42751 16.574C9.42751 13.6706 11.1015 10.2898 14.0288 10.2898C15.4373 10.2898 15.7478 10.3173 16.2113 11.4291C16.7535 12.739 18.0765 15.9663 18.234 16.2971C18.8843 17.6543 17.5725 18.4488 16.6207 19.6304C16.317 19.986 15.9728 20.3705 16.3575 21.0322C16.74 21.6804 18.063 23.8366 20.007 25.5674C22.518 27.8046 24.5542 28.5188 25.2832 28.8226C25.8255 29.0477 26.4735 28.9953 26.8695 28.5721C27.3713 28.0297 27.9945 27.1298 28.629 26.243C29.0767 25.6083 29.646 25.5291 30.2423 25.7542C30.645 25.8937 35.7637 28.2709 35.9797 28.6512C36.1395 28.9281 36.1395 30.2375 35.5973 31.7725ZM22.5045 0H22.4932C10.089 0 0 10.092 0 22.5C0 27.42 1.58627 31.9845 4.28402 35.6869L1.48051 44.0475L10.1273 41.2844C13.6845 43.6386 17.9302 45 22.5045 45C34.9087 45 45 34.908 45 22.5C45 10.092 34.9087 0 22.5045 0Z" fill="#6D823D"/>
</svg>
