<svg width="35" height="35" viewBox="0 0 35 35" fill="none" xmlns="http://www.w3.org/2000/svg">
<path d="M24.5496 10.431C24.5565 10.431 24.5658 10.431 24.575 10.431C24.8169 10.431 25.0413 10.5062 25.2253 10.6358L25.2218 10.6335C25.3561 10.7504 25.4463 10.9147 25.4683 11.0998V11.1033C25.4914 11.2444 25.5042 11.4064 25.5042 11.5719C25.5042 11.6471 25.5019 11.7211 25.4961 11.7952V11.7848C25.2357 14.5259 24.1064 21.1733 23.5325 24.2418C23.2895 25.5412 22.8117 25.9763 22.3488 26.0179C21.3433 26.1116 20.5797 25.3538 19.6054 24.715C18.0804 23.7142 17.2184 23.0917 15.7385 22.1163C14.0272 20.9904 15.1368 20.3691 16.1111 19.3578C16.3668 19.0917 20.7995 15.0593 20.8863 14.6937C20.8909 14.6717 20.8932 14.6474 20.8932 14.6219C20.8932 14.5317 20.8597 14.4495 20.8053 14.387C20.7451 14.3477 20.6699 14.3257 20.5912 14.3257C20.5392 14.3257 20.4894 14.3361 20.4431 14.3535L20.4455 14.3523C20.2927 14.387 17.8567 15.9969 13.1374 19.1819C12.6225 19.5881 11.9722 19.8449 11.2641 19.875H11.2571C10.254 19.7535 9.34335 19.5302 8.47902 19.212L8.56464 19.2398C7.47931 18.8857 6.61729 18.6994 6.69135 18.1001C6.73069 17.7884 7.16035 17.4695 7.98032 17.1432C13.0313 14.9424 16.3996 13.4918 18.085 12.7914C19.9444 11.8044 22.1001 10.9922 24.3668 10.4657L24.5484 10.4298L24.5496 10.431ZM17.385 0C7.77899 0.0231414 0 7.81602 0 17.4255C0 27.0489 7.80098 34.851 17.4255 34.851C27.05 34.851 34.851 27.05 34.851 17.4255C34.851 7.81602 27.072 0.0231414 17.4683 0H17.466C17.439 0 17.412 0 17.385 0Z" fill="white"/>
</svg>
