<svg width="35" height="35" viewBox="0 0 35 35" fill="none" xmlns="http://www.w3.org/2000/svg">
<path d="M28.015 24.759H25.4938C24.5392 24.759 24.2441 24 22.5293 22.2621C21.0356 20.8157 20.3749 20.6213 20.0081 20.6213C19.4932 20.6213 19.3462 20.7683 19.3462 21.4787V23.7558C19.3462 24.3691 19.1507 24.7359 17.5343 24.7359C14.2736 24.5172 11.4712 22.7388 9.84437 20.1469L9.82007 20.1064C7.93173 17.7611 6.53977 14.9343 5.85131 11.8426L5.82586 11.7073C5.82586 11.3405 5.9728 10.9968 6.68325 10.9968H9.2045C9.84089 10.9968 10.0862 11.2907 10.3327 11.9757C11.58 15.5765 13.6627 18.7353 14.5201 18.7353C14.8383 18.7353 14.9852 18.5884 14.9852 17.7807V14.0561C14.8869 12.3413 13.9809 12.1955 13.9809 11.5834C13.9913 11.256 14.2598 10.9945 14.5884 10.9945C14.5988 10.9945 14.608 10.9945 14.6184 10.9957H14.6173H18.5849C19.1241 10.9957 19.3196 11.2895 19.3196 11.9259V16.9476C19.3196 17.4857 19.5649 17.6824 19.7119 17.6824C20.0301 17.6824 20.3008 17.4857 20.8875 16.899C22.107 15.4099 23.1495 13.7067 23.9444 11.8704L23.9977 11.7316C24.1654 11.3115 24.5681 11.02 25.039 11.02C25.061 11.02 25.0818 11.0211 25.1038 11.0223H25.1004H27.6216C28.3807 11.0223 28.5531 11.4122 28.3807 11.9526C27.3694 14.1799 26.2331 16.0937 24.9164 17.8663L24.9766 17.7807C24.7081 18.2216 24.6098 18.4171 24.9766 18.9089C25.245 19.2757 26.1278 20.0347 26.7156 20.7208C27.5661 21.562 28.2788 22.5409 28.8169 23.6216L28.8458 23.6853C29.0911 24.3934 28.7231 24.7613 28.0127 24.7613L28.015 24.759ZM22.6775 0H12.0243C2.30142 0 0 2.30142 0 12.0243V22.6775C0 32.4003 2.30142 34.7017 12.0243 34.7017H22.6775C32.4003 34.7017 34.7017 32.4003 34.7017 22.6775V12.0243C34.7017 2.30142 32.3749 0 22.6775 0Z" fill="white"/>
</svg>
